<?xml version="1.0" encoding="iso-8859-1"?>
<!-- Generator: Adobe Illustrator 19.0.0, SVG Export Plug-In . SVG Version: 6.00 Build 0)  -->
<svg version="1.1" id="Capa_1" xmlns="http://www.w3.org/2000/svg" xmlns:xlink="http://www.w3.org/1999/xlink" x="0px" y="0px"
	 viewBox="0 0 512 512" style="enable-background:new 0 0 512 512;" xml:space="preserve">
<g>
	<g>
		<path d="M495.158,446.315H33.684V146.526c0-9.302-7.54-16.842-16.842-16.842C7.54,129.684,0,137.223,0,146.526v316.632
			C0,472.46,7.54,480,16.842,480h478.316c9.302,0,16.842-7.54,16.842-16.842S504.46,446.315,495.158,446.315z"/>
	</g>
</g>
<g>
	<g>
		<path d="M304.842,289.122h-85.895c-9.302,0-16.842,7.54-16.842,16.842v157.193h33.684V322.807H288v140.351h33.684V305.964
			C321.684,296.662,314.145,289.122,304.842,289.122z"/>
	</g>
</g>
<g>
	<g>
		<path d="M451.93,191.438h-85.895c-9.302,0-16.842,7.54-16.842,16.842v254.877h33.684V225.122h52.211v238.035h33.684V208.28
			C468.772,198.978,461.232,191.438,451.93,191.438z"/>
	</g>
</g>
<g>
	<g>
		<path d="M157.754,356.491H71.86c-9.302,0-16.842,7.54-16.842,16.842v89.825h33.684v-72.982h52.211v72.982h33.684v-89.825
			C174.596,364.03,167.057,356.491,157.754,356.491z"/>
	</g>
</g>
<g>
	<g>
		<path d="M316.093,40.903C223.837,230.181,17.162,254.186,15.085,254.411l1.757,16.747l1.735,16.752
			c9.229-0.954,227.166-25.791,327.792-232.247L316.093,40.903z"/>
	</g>
</g>
<g>
	<g>
		<path d="M370.201,149.406l-20.772-103.86c-1.825-9.123-10.672-15.04-19.812-13.215l-103.86,20.772
			c-9.123,1.825-15.04,10.695-13.215,19.818c1.825,9.128,10.706,15.029,19.818,13.215l87.343-17.471l17.471,87.343
			c1.6,8.006,8.629,13.541,16.494,13.541c1.089,0,2.206-0.107,3.324-0.326C366.108,167.399,372.025,158.529,370.201,149.406z"/>
	</g>
</g>
<g>
</g>
<g>
</g>
<g>
</g>
<g>
</g>
<g>
</g>
<g>
</g>
<g>
</g>
<g>
</g>
<g>
</g>
<g>
</g>
<g>
</g>
<g>
</g>
<g>
</g>
<g>
</g>
<g>
</g>
</svg>
