<svg id="Capa_1" enable-background="new 0 0 512 512" height="512" viewBox="0 0 512 512" width="512" xmlns="http://www.w3.org/2000/svg"><g><path d="m427.728 422.196c4.142 0 7.5-3.357 7.5-7.5v-13.233c0-35.379-23.875-66.455-58.059-75.57l-78.313-20.884v-32.111c25.612-14.275 43.42-40.923 45.288-71.805h8.832c13.047 0 23.663-10.615 23.663-23.663v-56.792c-.001-66.52-54.119-120.638-120.639-120.638s-120.638 54.118-120.638 120.638v56.792c0 13.048 10.615 23.663 23.663 23.663h8.832c1.868 30.882 19.677 57.53 45.288 71.805v32.111l-78.313 20.884c-34.185 9.115-58.06 40.191-58.06 75.57v13.233c0 4.143 3.358 7.5 7.5 7.5s7.5-3.357 7.5-7.5v-13.233c0-28.594 19.296-53.709 46.924-61.076l44.576-11.887 20.271 47.202c2.322 5.405 7.161 9.277 12.944 10.356 1.081.202 2.166.301 3.243.301 1.395 0 2.772-.186 4.112-.509l9.752 17.983-17.982 93.167h-61.209v-19.774c0-4.143-3.358-7.5-7.5-7.5s-7.5 3.357-7.5 7.5v19.774h-47.63v-47.301c0-4.143-3.358-7.5-7.5-7.5s-7.5 3.357-7.5 7.5v54.801c0 4.143 3.358 7.5 7.5 7.5h343.455c4.142 0 7.5-3.357 7.5-7.5v-54.801c0-4.143-3.358-7.5-7.5-7.5s-7.5 3.357-7.5 7.5v47.301h-47.63v-19.774c0-4.143-3.358-7.5-7.5-7.5s-7.5 3.357-7.5 7.5v19.774h-61.209l-17.983-93.168 9.752-17.983c1.341.323 2.717.509 4.112.509 1.077 0 2.163-.099 3.243-.301 5.783-1.079 10.622-4.951 12.944-10.356l20.271-47.202 44.577 11.887c27.628 7.367 46.924 32.482 46.924 61.076v13.233c-.001 4.144 3.356 7.501 7.499 7.501zm-66.09-244.766c0 4.776-3.886 8.663-8.663 8.663h-8.663v-33.488h8.663c4.776 0 8.663 3.887 8.663 8.663zm-105.638-162.43c58.249 0 105.638 47.389 105.638 105.638v18.616c-2.685-1.06-5.605-1.65-8.663-1.65h-11.668l-3.942-7.371c-1.305-2.439-3.847-3.963-6.614-3.963h-14.404c-11.748 0-22.206-7.464-26.024-18.572l-2.987-8.69c-1.028-2.993-3.825-5.018-6.989-5.062-3.176-.088-6.015 1.903-7.126 4.865l-3.601 9.602c-4.005 10.682-14.36 17.857-25.767 17.857h-62.606c-2.767 0-5.309 1.523-6.614 3.963l-3.942 7.371h-11.668c-3.057 0-5.978.589-8.663 1.65v-18.616c.002-58.249 47.391-105.638 105.64-105.638zm-105.638 162.43v-16.162c0-4.776 3.886-8.663 8.663-8.663h8.663v33.488h-8.663c-4.777 0-8.663-3.887-8.663-8.663zm32.325 18.275v-48.721l3.055-5.714h58.112c14.881 0 28.604-7.905 36.24-20.3 7.613 12.424 21.253 20.3 36.254 20.3h9.91l3.055 5.714v48.721c0 28.857-16.765 53.863-41.061 65.818-.197.09-.389.185-.576.291-9.593 4.615-20.337 7.204-31.676 7.204s-22.083-2.589-31.676-7.204c-.187-.106-.38-.201-.576-.291-24.296-11.955-41.061-36.961-41.061-65.818zm73.313 88.313c9.729 0 19.094-1.586 27.855-4.505v31.259c0 15.359-12.496 27.855-27.855 27.855s-27.855-12.496-27.855-27.855v-31.259c8.761 2.919 18.126 4.505 27.855 4.505zm10.067 111.1h-20.134l-9.765-18.006 19.832-20.263 19.832 20.263zm-46.827-23.805c-.51-.095-1.437-.421-1.913-1.531l-19.406-45.188 16.293-4.345c3.196 14.096 13.353 25.574 26.658 30.612l-19.295 19.714c-.845.863-1.827.833-2.337.738zm11.649 125.687 16.77-86.882h16.681l16.771 86.882zm63.784-127.219c-.477 1.11-1.404 1.437-1.914 1.531-.512.094-1.492.127-2.337-.737l-19.295-19.714c13.306-5.038 23.462-16.516 26.658-30.612l16.293 4.345z"/></g></svg>