<?xml version="1.0" encoding="iso-8859-1"?>
<!-- Generator: Adobe Illustrator 19.0.0, SVG Export Plug-In . SVG Version: 6.00 Build 0)  -->
<svg version="1.1" id="Capa_1" xmlns="http://www.w3.org/2000/svg" xmlns:xlink="http://www.w3.org/1999/xlink" x="0px" y="0px"
	 viewBox="0 0 511.999 511.999" style="enable-background:new 0 0 511.999 511.999;" xml:space="preserve">
<linearGradient id="SVGID_1_" gradientUnits="userSpaceOnUse" x1="256.5738" y1="513.7383" x2="256.5738" y2="0.7753" gradientTransform="matrix(0.9981 0 0 -0.9981 -0.0921 512.7728)">
	<stop  offset="0" style="stop-color:#2AF598"/>
	<stop  offset="1" style="stop-color:#009EFD"/>
</linearGradient>
<path style="fill:url(#SVGID_1_);" d="M284.937,117.778c32.472,0,58.889-26.417,58.889-58.889S317.408,0,284.937,0
	s-58.889,26.417-58.889,58.889S252.466,117.778,284.937,117.778z M284.937,39.925c10.457,0,18.964,8.507,18.964,18.964
	s-8.507,18.964-18.964,18.964s-18.964-8.507-18.964-18.964S274.48,39.925,284.937,39.925z M331.891,423.403l-31.529,15.62
	l34.266-231.563c0.144-0.967,0.215-1.944,0.215-2.922c0-17.753-8.681-34.341-23.22-44.376c-14.375-9.92-32.692-12.149-49.001-5.963
	c-0.594,0.226-1.178,0.479-1.748,0.761l-98.49,48.566l17.657,35.808l31.573-15.569l-34.26,231.451
	c-0.143,0.967-0.215,1.944-0.215,2.923c0,17.696,8.714,34.272,23.309,44.346c9.105,6.283,19.754,9.516,30.47,9.516
	c6.351,0,12.727-1.137,18.817-3.447c0.606-0.23,1.2-0.489,1.781-0.777l98.099-48.598L331.891,423.403z M234.853,471.476
	c-5.566,1.774-10.021-0.675-11.726-1.851c-1.712-1.182-5.558-4.465-6.017-10.323l38.041-257.007l22.344-11.018
	c5.273-1.697,9.407,0.333,11.449,1.743c1.688,1.165,5.479,4.418,5.929,10.346l-38.064,257.233L234.853,471.476z"/>
<g>
</g>
<g>
</g>
<g>
</g>
<g>
</g>
<g>
</g>
<g>
</g>
<g>
</g>
<g>
</g>
<g>
</g>
<g>
</g>
<g>
</g>
<g>
</g>
<g>
</g>
<g>
</g>
<g>
</g>
</svg>
