<svg xmlns="http://www.w3.org/2000/svg" viewBox="0 0 512 512" width="512" height="512">
	<style>
		tspan { white-space:pre }
		.shp0 { fill: #ec495e } 
	</style>
	<g id="Layer">
		<g id="Layer">
			<g id="Layer">
				<path id="Layer" class="shp0" d="M349.85 62.2C339.05 57.48 326.48 62.41 321.76 73.2C317.04 84 321.97 96.58 332.77 101.3C402.18 131.62 448 200.27 448 277.33C448 383.36 362.03 469.33 256 469.33C149.96 469.33 64 383.37 64 277.33C64 200.29 109.8 131.64 179.19 101.29C189.98 96.57 194.91 83.99 190.19 73.2C185.47 62.4 172.89 57.48 162.1 62.2C77.31 99.28 21.33 183.18 21.33 277.33C21.33 406.94 126.39 512 256 512C385.59 512 490.66 406.93 490.66 277.33C490.67 183.16 434.67 99.25 349.85 62.2Z" />
				<path id="Layer" class="shp0" d="M255.99 234.67C267.77 234.67 277.32 225.12 277.32 213.33L277.32 21.33C277.32 9.55 267.77 0 255.99 0C244.21 0 234.66 9.55 234.66 21.33L234.66 213.33C234.66 225.12 244.21 234.67 255.99 234.67Z" />
			</g>
		</g>
	</g>
	<g id="Layer">
	</g>
	<g id="Layer">
	</g>
	<g id="Layer">
	</g>
	<g id="Layer">
	</g>
	<g id="Layer">
	</g>
	<g id="Layer">
	</g>
	<g id="Layer">
	</g>
	<g id="Layer">
	</g>
	<g id="Layer">
	</g>
	<g id="Layer">
	</g>
	<g id="Layer">
	</g>
	<g id="Layer">
	</g>
	<g id="Layer">
	</g>
	<g id="Layer">
	</g>
	<g id="Layer">
	</g>
</svg>